{
    "asset": {
        "generator": "SOLIDWORKSGLTF",
        "version": "2.0"
    },
    "scene": 0,
    "scenes": [
        {
            "name": "Default",
            "nodes": [
                0,
                1
            ]
        }
    ],
    "nodes": [
        {
            "matrix": [
                0.3863242827815023,
                -0.8375692615921504,
                -0.38630464735664,
                0.0,
                0.7072500327826349,
                0.00014874223915001258,
                0.7069634849160941,
                0.0,
                -0.5920734242155443,
                -0.5463311357699893,
                0.5924283504576343,
                0.0,
                -0.46410057982471714,
                0.1654112231594232,
                0.6640673621760235,
                1.0
            ],
            "camera": 0,
            "name": "current camera"
        },
        {
            "children": [
                2,
                3,
                4,
                5,
                6,
                7,
                8,
                9,
                10,
                11,
                12,
                13,
                14
            ],
            "name": "_25-DYN-4100 (Brake Rotor Assembly)"
        },
        {
            "rotation": [
                -0.633169412612915,
                0.30061665177345276,
                0.3059097230434418,
                0.6443178057670593
            ],
            "translation": [
                0.03810511901974678,
                0.5937286615371704,
                0.22168521583080292
            ],
            "mesh": 0,
            "name": "25-DYN-4100-02-R1 (Universal Brake Button)-21"
        },
        {
            "rotation": [
                -0.39803245663642883,
                0.5769263505935669,
                0.5870844721794128,
                0.40504077076911926
            ],
            "translation": [
                0.03810511901974678,
                0.5944965481758118,
                0.17769192159175873
            ],
            "mesh": 0
        },
        {
            "rotation": [
                -0.6986491084098816,
                -0.05624304711818695,
                -0.05723334103822708,
                0.7109504342079163
            ],
            "translation": [
                -6.106226635438361e-16,
                0.5933446884155273,
                0.243681862950325
            ],
            "mesh": 0
        },
        {
            "rotation": [
                0.5151457786560059,
                0.5235209465026855,
                -0.4753165543079376,
                -0.484380841255188
            ],
            "scale": [
                1.0,
                0.9999999403953552,
                0.9999999403953552
            ],
            "translation": [
                0.03810511901974678,
                0.5922743678092957,
                0.17765313386917114
            ],
            "mesh": 1,
            "name": "DL - 98585A109 - McMaster (Heavy Duty External Retaining Ring)-16"
        },
        {
            "rotation": [
                0.6883198022842407,
                0.6910406947135925,
                -0.14987576007843018,
                -0.16191324591636658
            ],
            "translation": [
                0.03810511901974678,
                0.5915064811706543,
                0.22164642810821533
            ],
            "mesh": 1
        },
        {
            "rotation": [
                0.67705899477005,
                0.6733967065811157,
                0.2157241702079773,
                0.20393891632556915
            ],
            "translation": [
                -6.38378239159465e-16,
                0.5911225080490112,
                0.24364307522773743
            ],
            "mesh": 1
        },
        {
            "rotation": [
                0.30061665177345276,
                0.633169412612915,
                0.6443178057670593,
                -0.3059097230434418
            ],
            "translation": [
                -0.03810511901974678,
                0.5944965481758118,
                0.17769192159175873
            ],
            "mesh": 0
        },
        {
            "rotation": [
                -0.05624304711818695,
                0.6986491084098816,
                0.7109504342079163,
                0.05723334103822708
            ],
            "translation": [
                2.7755575615628914e-16,
                0.5948805212974548,
                0.15569527447223663
            ],
            "mesh": 0
        },
        {
            "rotation": [
                0.16191324591636658,
                0.14987576007843018,
                0.6910406947135925,
                0.6883198022842407
            ],
            "translation": [
                -0.03810511901974678,
                0.5922743678092957,
                0.17765313386917114
            ],
            "mesh": 1
        },
        {
            "rotation": [
                -0.20393891632556915,
                -0.2157241702079773,
                0.6733967065811157,
                0.67705899477005
            ],
            "translation": [
                2.7755575615628914e-16,
                0.5926583409309387,
                0.15565648674964905
            ],
            "mesh": 1
        },
        {
            "rotation": [
                0.484380841255188,
                0.4753165543079376,
                0.5235209465026855,
                0.5151457786560059
            ],
            "scale": [
                1.0,
                0.9999999403953552,
                0.9999999403953552
            ],
            "translation": [
                -0.03810511901974678,
                0.5915064811706543,
                0.22164642810821533
            ],
            "mesh": 1
        },
        {
            "mesh": 2,
            "name": "25-DYN-4100-01-R5 (Front Brake Rotor)-3"
        },
        {
            "rotation": [
                -0.5769263505935669,
                -0.39803245663642883,
                -0.40504077076911926,
                0.5870844721794128
            ],
            "translation": [
                -0.03810511901974678,
                0.5937286615371704,
                0.22168521583080292
            ],
            "mesh": 0
        }
    ],
    "cameras": [
        {
            "type": "orthographic",
            "orthographic": {
                "xmag": 0.19428686088641184,
                "ymag": 0.15013075613950005,
                "zfar": 1.041341246428971,
                "znear": 0.6551140704819477
            }
        }
    ],
    "meshes": [
        {
            "primitives": [
                {
                    "attributes": {
                        "POSITION": 1,
                        "NORMAL": 2
                    },
                    "indices": 0,
                    "material": 0,
                    "mode": 4
                }
            ]
        },
        {
            "primitives": [
                {
                    "attributes": {
                        "POSITION": 4,
                        "NORMAL": 5
                    },
                    "indices": 3,
                    "material": 1,
                    "mode": 4
                }
            ]
        },
        {
            "primitives": [
                {
                    "attributes": {
                        "POSITION": 7,
                        "NORMAL": 8
                    },
                    "indices": 6,
                    "material": 2,
                    "mode": 4
                }
            ]
        }
    ],
    "accessors": [
        {
            "bufferView": 0,
            "byteOffset": 0,
            "componentType": 5125,
            "count": 2688,
            "type": "SCALAR",
            "min": [
                0
            ],
            "max": [
                989
            ]
        },
        {
            "bufferView": 1,
            "byteOffset": 0,
            "componentType": 5126,
            "count": 990,
            "type": "VEC3",
            "min": [
                -0.007849999703466892,
                -0.007849999703466892,
                -0.004000000189989805
            ],
            "max": [
                0.007849999703466892,
                0.007849999703466892,
                0.003087500110268593
            ]
        },
        {
            "bufferView": 2,
            "byteOffset": 0,
            "componentType": 5126,
            "count": 990,
            "type": "VEC3",
            "min": [
                -1.0,
                -1.0,
                -1.0
            ],
            "max": [
                1.0,
                1.0,
                1.0
            ]
        },
        {
            "bufferView": 3,
            "byteOffset": 0,
            "componentType": 5125,
            "count": 2460,
            "type": "SCALAR",
            "min": [
                0
            ],
            "max": [
                991
            ]
        },
        {
            "bufferView": 4,
            "byteOffset": 0,
            "componentType": 5126,
            "count": 992,
            "type": "VEC3",
            "min": [
                -0.0006350000039674342,
                -0.008222921751439571,
                -0.007663028314709663
            ],
            "max": [
                0.0006350000039674342,
                0.008957384154200554,
                0.007663028314709663
            ]
        },
        {
            "bufferView": 5,
            "byteOffset": 0,
            "componentType": 5126,
            "count": 992,
            "type": "VEC3",
            "min": [
                -1.0,
                -1.0,
                -1.0
            ],
            "max": [
                1.0,
                1.0,
                1.0
            ]
        },
        {
            "bufferView": 6,
            "byteOffset": 0,
            "componentType": 5125,
            "count": 14532,
            "type": "SCALAR",
            "min": [
                0
            ],
            "max": [
                6235
            ]
        },
        {
            "bufferView": 7,
            "byteOffset": 0,
            "componentType": 5126,
            "count": 6236,
            "type": "VEC3",
            "min": [
                -0.09096003323793411,
                0.5909371972084045,
                0.10883451998233795
            ],
            "max": [
                0.09096003323793411,
                0.5972852110862732,
                0.2907024025917053
            ]
        },
        {
            "bufferView": 8,
            "byteOffset": 0,
            "componentType": 5126,
            "count": 6236,
            "type": "VEC3",
            "min": [
                -1.0,
                -0.9998477101325989,
                -0.999847412109375
            ],
            "max": [
                1.0,
                0.9998477101325989,
                0.9998477101325989
            ]
        }
    ],
    "materials": [
        {
            "name": "mattesteel",
            "pbrMetallicRoughness": {
                "baseColorFactor": [
                    0.38891028388129995,
                    0.3488648621678924,
                    0.31118052762160187,
                    1.0
                ],
                "metallicFactor": 1.0,
                "roughnessFactor": 0.5
            }
        },
        {
            "name": "defaultplastic",
            "pbrMetallicRoughness": {
                "baseColorFactor": [
                    0.5356416323624177,
                    0.5356416323624177,
                    0.5356416323624177,
                    1.0
                ],
                "metallicFactor": 0.0,
                "roughnessFactor": 0.15999999940395357
            }
        },
        {
            "name": "defaultplastic",
            "pbrMetallicRoughness": {
                "baseColorFactor": [
                    1.0,
                    1.0,
                    1.0,
                    1.0
                ],
                "metallicFactor": 0.0,
                "roughnessFactor": 0.16999999880790712
            }
        }
    ],
    "bufferViews": [
        {
            "buffer": 0,
            "byteOffset": 0,
            "byteLength": 10752,
            "target": 34963
        },
        {
            "buffer": 0,
            "byteOffset": 10752,
            "byteLength": 11880,
            "byteStride": 12,
            "target": 34962
        },
        {
            "buffer": 0,
            "byteOffset": 22632,
            "byteLength": 11880,
            "byteStride": 12,
            "target": 34962
        },
        {
            "buffer": 1,
            "byteOffset": 0,
            "byteLength": 9840,
            "target": 34963
        },
        {
            "buffer": 1,
            "byteOffset": 9840,
            "byteLength": 11904,
            "byteStride": 12,
            "target": 34962
        },
        {
            "buffer": 1,
            "byteOffset": 21744,
            "byteLength": 11904,
            "byteStride": 12,
            "target": 34962
        },
        {
            "buffer": 2,
            "byteOffset": 0,
            "byteLength": 58128,
            "target": 34963
        },
        {
            "buffer": 2,
            "byteOffset": 58128,
            "byteLength": 74832,
            "byteStride": 12,
            "target": 34962
        },
        {
            "buffer": 2,
            "byteOffset": 132960,
            "byteLength": 74832,
            "byteStride": 12,
            "target": 34962
        }
    ],
    "buffers": [
        {
            "uri": "0-1-25-DYN-4100-02-R1 (Universal Brake Button)-21.bin",
            "byteLength": 34512
        },
        {
            "uri": "0-4-DL - 98585A109 - McMaster (Heavy Duty External Retaining Ring)-16.bin",
            "byteLength": 33648
        },
        {
            "uri": "0-12-25-DYN-4100-01-R5 (Front Brake Rotor)-3.bin",
            "byteLength": 207792
        }
    ]
}
