{
    "asset": {
        "generator": "SOLIDWORKSGLTF",
        "version": "2.0"
    },
    "scene": 0,
    "scenes": [
        {
            "name": "Default",
            "nodes": [
                0,
                1
            ]
        }
    ],
    "nodes": [
        {
            "matrix": [
                -0.7227480271531261,
                -0.6910052611310329,
                0.012125111772569003,
                0.0,
                0.41713054748032774,
                -0.4221696497211029,
                0.8048446391777256,
                0.0,
                -0.5510330258750615,
                0.5867576296424227,
                0.5933616843472279,
                0.0,
                -0.5195691717600821,
                0.5532539091882683,
                0.5594808739473938,
                1.0
            ],
            "camera": 0,
            "name": "current camera"
        },
        {
            "children": [
                2,
                3,
                4,
                5,
                6,
                7,
                8
            ],
            "name": "_23-DYN-4100 (Front Rotor Assembly)"
        },
        {
            "mesh": 0,
            "name": "23-DYN-4100-01-R1 (Front Brake Rotor)-1"
        },
        {
            "rotation": [
                0.0,
                0.0,
                0.7071068286895752,
                0.7071068286895752
            ],
            "translation": [
                -8.673617379884035e-19,
                3.469446951953614e-18,
                0.045212000608444214
            ],
            "mesh": 1,
            "name": "23-DYN-4200-02-R1 (Rear Brake Button)-2"
        },
        {
            "rotation": [
                0.6123725175857544,
                -0.6123724579811096,
                -0.3535534143447876,
                -0.3535534143447876
            ],
            "translation": [
                -8.673617379884035e-19,
                0.039154741913080215,
                -0.022606000304222107
            ],
            "mesh": 1
        },
        {
            "rotation": [
                0.3535534143447876,
                -0.3535534143447876,
                0.6123724579811096,
                0.6123725175857544
            ],
            "translation": [
                -8.673617379884035e-19,
                -0.039154741913080215,
                0.022606000304222107
            ],
            "mesh": 1
        },
        {
            "rotation": [
                0.6123725175857544,
                -0.6123724579811096,
                0.3535534143447876,
                0.3535534143447876
            ],
            "translation": [
                -8.673617379884035e-19,
                -0.039154741913080215,
                -0.022606000304222107
            ],
            "mesh": 1
        },
        {
            "rotation": [
                0.7071068286895752,
                -0.7071068286895752,
                -2.4688503194938982e-15,
                -2.4688503194938982e-15
            ],
            "translation": [
                -8.673617379884035e-19,
                3.122442699754149e-16,
                -0.045212000608444214
            ],
            "mesh": 1
        },
        {
            "rotation": [
                -0.3535534143447876,
                0.3535534143447876,
                0.6123724579811096,
                0.6123725175857544
            ],
            "translation": [
                -8.673617379884035e-19,
                0.039154741913080215,
                0.022606000304222107
            ],
            "mesh": 1
        }
    ],
    "cameras": [
        {
            "type": "orthographic",
            "orthographic": {
                "xmag": 0.22189747920236416,
                "ymag": 0.17146623392909957,
                "zfar": 1.3416236107130253,
                "znear": 0.7435385530498196
            }
        }
    ],
    "meshes": [
        {
            "primitives": [
                {
                    "attributes": {
                        "POSITION": 1,
                        "NORMAL": 2
                    },
                    "indices": 0,
                    "material": 0,
                    "mode": 4
                }
            ]
        },
        {
            "primitives": [
                {
                    "attributes": {
                        "POSITION": 4,
                        "NORMAL": 5
                    },
                    "indices": 3,
                    "material": 1,
                    "mode": 4
                }
            ]
        }
    ],
    "accessors": [
        {
            "bufferView": 0,
            "byteOffset": 0,
            "componentType": 5125,
            "count": 27084,
            "type": "SCALAR",
            "min": [
                0
            ],
            "max": [
                12213
            ]
        },
        {
            "bufferView": 1,
            "byteOffset": 0,
            "componentType": 5126,
            "count": 12214,
            "type": "VEC3",
            "min": [
                -0.0024129999801516533,
                -0.09013040363788605,
                -0.0901700034737587
            ],
            "max": [
                0.0024129999801516533,
                0.09013040363788605,
                0.0901700034737587
            ]
        },
        {
            "bufferView": 2,
            "byteOffset": 0,
            "componentType": 5126,
            "count": 12214,
            "type": "VEC3",
            "min": [
                -1.0,
                -1.0,
                -1.0
            ],
            "max": [
                1.0,
                1.0,
                1.0
            ]
        },
        {
            "bufferView": 3,
            "byteOffset": 0,
            "componentType": 5125,
            "count": 3372,
            "type": "SCALAR",
            "min": [
                0
            ],
            "max": [
                1211
            ]
        },
        {
            "bufferView": 4,
            "byteOffset": 0,
            "componentType": 5126,
            "count": 1212,
            "type": "VEC3",
            "min": [
                -0.006337469909340143,
                -0.005080000031739473,
                -0.00634999992325902
            ],
            "max": [
                0.006337469909340143,
                0.005080000031739473,
                0.00634999992325902
            ]
        },
        {
            "bufferView": 5,
            "byteOffset": 0,
            "componentType": 5126,
            "count": 1212,
            "type": "VEC3",
            "min": [
                -1.0,
                -1.0,
                -1.0
            ],
            "max": [
                1.0,
                1.0,
                1.0
            ]
        }
    ],
    "materials": [
        {
            "name": "defaultplastic",
            "pbrMetallicRoughness": {
                "baseColorFactor": [
                    0.7817506899134391,
                    0.7817506899134391,
                    0.7817506899134391,
                    1.0
                ],
                "metallicFactor": 0.0,
                "roughnessFactor": 0.1899999998509884
            }
        },
        {
            "name": "mattesteel",
            "pbrMetallicRoughness": {
                "baseColorFactor": [
                    0.38891028388129995,
                    0.3488648621678924,
                    0.31118052762160187,
                    1.0
                ],
                "metallicFactor": 1.0,
                "roughnessFactor": 0.5
            }
        }
    ],
    "bufferViews": [
        {
            "buffer": 0,
            "byteOffset": 0,
            "byteLength": 108336,
            "target": 34963
        },
        {
            "buffer": 0,
            "byteOffset": 108336,
            "byteLength": 146568,
            "byteStride": 12,
            "target": 34962
        },
        {
            "buffer": 0,
            "byteOffset": 254904,
            "byteLength": 146568,
            "byteStride": 12,
            "target": 34962
        },
        {
            "buffer": 1,
            "byteOffset": 0,
            "byteLength": 13488,
            "target": 34963
        },
        {
            "buffer": 1,
            "byteOffset": 13488,
            "byteLength": 14544,
            "byteStride": 12,
            "target": 34962
        },
        {
            "buffer": 1,
            "byteOffset": 28032,
            "byteLength": 14544,
            "byteStride": 12,
            "target": 34962
        }
    ],
    "buffers": [
        {
            "uri": "0-1-23-DYN-4100-01-R1 (Front Brake Rotor)-1.bin",
            "byteLength": 401472
        },
        {
            "uri": "0-2-23-DYN-4200-02-R1 (Rear Brake Button)-2.bin",
            "byteLength": 42576
        }
    ]
}
