{
    "asset": {
        "generator": "SOLIDWORKSGLTF",
        "version": "2.0"
    },
    "scene": 0,
    "scenes": [
        {
            "name": "Default",
            "nodes": [
                0,
                1
            ]
        }
    ],
    "nodes": [
        {
            "matrix": [
                0.6987893154397442,
                0.7152261398755413,
                -0.012044146544537199,
                0.0,
                -0.40330289225546295,
                0.40782881647427527,
                0.8191595897940586,
                0.0,
                0.5907963013811378,
                -0.5675625298519315,
                0.573439190309176,
                0.0,
                0.5651158440305147,
                -0.4611237235818041,
                0.4658982945052476,
                1.0
            ],
            "camera": 0,
            "name": "current camera"
        },
        {
            "children": [
                2,
                3,
                4,
                5,
                6,
                7,
                8
            ],
            "name": "Brotor22"
        },
        {
            "rotation": [
                -0.43889158964157104,
                -0.43889158964157104,
                -0.554413378238678,
                0.554413378238678
            ],
            "translation": [
                0.08511553704738617,
                -0.0273049995303154,
                -0.04729364812374115
            ],
            "mesh": 0,
            "name": "23-DYN-4200-02-R1 (Rear Brake Button)-9"
        },
        {
            "rotation": [
                -0.10288459807634354,
                -0.10288459807634354,
                -0.6995818614959717,
                0.6995819211006165
            ],
            "translation": [
                0.08511553704738617,
                0.0273049995303154,
                -0.04729364812374115
            ],
            "mesh": 0
        },
        {
            "rotation": [
                0.26069027185440063,
                0.26069027185440063,
                -0.6572979688644409,
                0.6572979092597961
            ],
            "scale": [
                0.9999999403953552,
                1.0,
                0.9999999403953552
            ],
            "translation": [
                0.08511553704738617,
                0.0546099990606308,
                -3.9898639947466563e-16
            ],
            "mesh": 0
        },
        {
            "rotation": [
                0.6572979092597961,
                0.6572979688644409,
                0.26069027185440063,
                -0.26069027185440063
            ],
            "scale": [
                0.9999999403953552,
                1.0,
                0.9999999403953552
            ],
            "translation": [
                0.08511553704738617,
                -0.0546099990606308,
                7.598088824778415e-16
            ],
            "mesh": 0
        },
        {
            "rotation": [
                0.6995819211006165,
                0.6995818614959717,
                -0.10288459807634354,
                0.10288459807634354
            ],
            "translation": [
                0.08511553704738617,
                -0.0273049995303154,
                0.04729364812374115
            ],
            "mesh": 0
        },
        {
            "rotation": [
                5.751406651415903e-17,
                9.876183804069958e-17,
                1.0,
                8.326672684688674e-17
            ],
            "mesh": 1,
            "name": "23-DYN-4200-01-R1 (Rear Brake Rotor)-1"
        },
        {
            "rotation": [
                0.554413378238678,
                0.554413378238678,
                -0.43889158964157104,
                0.43889158964157104
            ],
            "translation": [
                0.08511553704738617,
                0.0273049995303154,
                0.04729364812374115
            ],
            "mesh": 0
        }
    ],
    "cameras": [
        {
            "type": "orthographic",
            "orthographic": {
                "xmag": 0.1927904850517504,
                "ymag": 0.14897446572180711,
                "zfar": 1.1716735406528336,
                "znear": 0.6328581733886843
            }
        }
    ],
    "meshes": [
        {
            "primitives": [
                {
                    "attributes": {
                        "POSITION": 1,
                        "NORMAL": 2
                    },
                    "indices": 0,
                    "material": 0,
                    "mode": 4
                }
            ]
        },
        {
            "primitives": [
                {
                    "attributes": {
                        "POSITION": 4,
                        "NORMAL": 5
                    },
                    "indices": 3,
                    "material": 1,
                    "mode": 4
                }
            ]
        }
    ],
    "accessors": [
        {
            "bufferView": 0,
            "byteOffset": 0,
            "componentType": 5125,
            "count": 3372,
            "type": "SCALAR",
            "min": [
                0
            ],
            "max": [
                1211
            ]
        },
        {
            "bufferView": 1,
            "byteOffset": 0,
            "componentType": 5126,
            "count": 1212,
            "type": "VEC3",
            "min": [
                -0.006337469909340143,
                -0.005080000031739473,
                -0.00634999992325902
            ],
            "max": [
                0.006337469909340143,
                0.005080000031739473,
                0.00634999992325902
            ]
        },
        {
            "bufferView": 2,
            "byteOffset": 0,
            "componentType": 5126,
            "count": 1212,
            "type": "VEC3",
            "min": [
                -1.0,
                -1.0,
                -1.0
            ],
            "max": [
                1.0,
                1.0,
                1.0
            ]
        },
        {
            "bufferView": 3,
            "byteOffset": 0,
            "componentType": 5125,
            "count": 33168,
            "type": "SCALAR",
            "min": [
                0
            ],
            "max": [
                14977
            ]
        },
        {
            "bufferView": 4,
            "byteOffset": 0,
            "componentType": 5126,
            "count": 14978,
            "type": "VEC3",
            "min": [
                -0.0875285342335701,
                -0.09533511102199554,
                -0.09537699818611145
            ],
            "max": [
                -0.08270253241062164,
                0.09533511102199554,
                0.09537699818611145
            ]
        },
        {
            "bufferView": 5,
            "byteOffset": 0,
            "componentType": 5126,
            "count": 14978,
            "type": "VEC3",
            "min": [
                -1.0,
                -1.0,
                -1.0
            ],
            "max": [
                1.0,
                1.0,
                1.0
            ]
        }
    ],
    "materials": [
        {
            "name": "mattesteel",
            "pbrMetallicRoughness": {
                "baseColorFactor": [
                    0.38891028388129995,
                    0.3488648621678924,
                    0.31118052762160187,
                    1.0
                ],
                "metallicFactor": 1.0,
                "roughnessFactor": 0.5
            }
        },
        {
            "name": "defaultplastic",
            "pbrMetallicRoughness": {
                "baseColorFactor": [
                    0.7817506899134391,
                    0.7817506899134391,
                    0.7817506899134391,
                    1.0
                ],
                "metallicFactor": 0.0,
                "roughnessFactor": 0.1899999998509884
            }
        }
    ],
    "bufferViews": [
        {
            "buffer": 0,
            "byteOffset": 0,
            "byteLength": 13488,
            "target": 34963
        },
        {
            "buffer": 0,
            "byteOffset": 13488,
            "byteLength": 14544,
            "byteStride": 12,
            "target": 34962
        },
        {
            "buffer": 0,
            "byteOffset": 28032,
            "byteLength": 14544,
            "byteStride": 12,
            "target": 34962
        },
        {
            "buffer": 1,
            "byteOffset": 0,
            "byteLength": 132672,
            "target": 34963
        },
        {
            "buffer": 1,
            "byteOffset": 132672,
            "byteLength": 179736,
            "byteStride": 12,
            "target": 34962
        },
        {
            "buffer": 1,
            "byteOffset": 312408,
            "byteLength": 179736,
            "byteStride": 12,
            "target": 34962
        }
    ],
    "buffers": [
        {
            "uri": "0-1-23-DYN-4200-02-R1 (Rear Brake Button)-9.bin",
            "byteLength": 42576
        },
        {
            "uri": "0-6-23-DYN-4200-01-R1 (Rear Brake Rotor)-1.bin",
            "byteLength": 492144
        }
    ]
}
