{
    "asset": {
        "generator": "SOLIDWORKSGLTF",
        "version": "2.0"
    },
    "scene": 0,
    "scenes": [
        {
            "name": "Default",
            "nodes": [
                0,
                1
            ]
        }
    ],
    "nodes": [
        {
            "matrix": [
                0.6766024301050927,
                0.733836402310906,
                -0.060772413307926265,
                0.0,
                0.3907753275690072,
                -0.4277947213955238,
                -0.8150376185854621,
                0.0,
                -0.6241023913904018,
                0.5277080736444273,
                -0.5762121085774485,
                0.0,
                -0.46932774913932335,
                0.39883880132365446,
                -0.4333140453812335,
                1.0
            ],
            "camera": 0,
            "name": "current camera"
        },
        {
            "children": [
                2,
                3,
                4,
                5,
                6,
                7,
                8
            ],
            "name": "_24-DYN-2101-R1 (Front Brake Rotor Assembly)"
        },
        {
            "mesh": 0,
            "name": "24-DYN-2100-06-R1 (Front Brake Rotor)-1"
        },
        {
            "rotation": [
                -2.3347219237439306e-21,
                0.8195146322250366,
                1.5463710391862495e-21,
                -0.5730582475662231
            ],
            "translation": [
                -0.03464101627469063,
                0.0020000040531158447,
                -0.019999999552965164
            ],
            "mesh": 1,
            "name": "24-PTN-3100-08-R1 (Universal Brake Button)-1"
        },
        {
            "rotation": [
                -1.5463710391862495e-21,
                0.5730582475662231,
                -2.3347219237439306e-21,
                0.8195146322250366
            ],
            "translation": [
                0.03464101627469063,
                0.0020000040531158447,
                0.019999999552965164
            ],
            "mesh": 1
        },
        {
            "rotation": [
                -2.8084940624482954e-21,
                0.9962496161460876,
                2.075385756553372e-22,
                -0.08652561157941818
            ],
            "translation": [
                2.393918396847994e-16,
                0.0020000040531158447,
                -0.03999999910593033
            ],
            "mesh": 1
        },
        {
            "rotation": [
                -2.6024273371590323e-21,
                0.9060403108596802,
                -1.2205644676233588e-21,
                0.4231913983821869
            ],
            "translation": [
                0.03464101627469063,
                0.0020000040531158447,
                -0.019999999552965164
            ],
            "mesh": 1
        },
        {
            "rotation": [
                -2.075385756553372e-22,
                0.08652561157941818,
                -2.8084940624482954e-21,
                0.9962496161460876
            ],
            "translation": [
                -5.169475958410885e-16,
                0.0020000040531158447,
                0.03999999910593033
            ],
            "mesh": 1
        },
        {
            "rotation": [
                1.2025976240815347e-21,
                -0.4231913983821869,
                -2.5626239149929278e-21,
                0.9060403108596802
            ],
            "translation": [
                -0.03464101627469063,
                0.0020000040531158447,
                0.019999999552965164
            ],
            "mesh": 1
        }
    ],
    "cameras": [
        {
            "type": "orthographic",
            "orthographic": {
                "xmag": 0.17756426733961722,
                "ymag": 0.13720875203515875,
                "zfar": 1.0065942738876212,
                "znear": 0.6247094745043515
            }
        }
    ],
    "meshes": [
        {
            "primitives": [
                {
                    "attributes": {
                        "POSITION": 1,
                        "NORMAL": 2
                    },
                    "indices": 0,
                    "material": 0,
                    "mode": 4
                }
            ]
        },
        {
            "primitives": [
                {
                    "attributes": {
                        "POSITION": 4,
                        "NORMAL": 5
                    },
                    "indices": 3,
                    "material": 0,
                    "mode": 4
                }
            ]
        }
    ],
    "accessors": [
        {
            "bufferView": 0,
            "byteOffset": 0,
            "componentType": 5125,
            "count": 29628,
            "type": "SCALAR",
            "min": [
                0
            ],
            "max": [
                13255
            ]
        },
        {
            "bufferView": 1,
            "byteOffset": 0,
            "componentType": 5126,
            "count": 13256,
            "type": "VEC3",
            "min": [
                -0.08998993039131165,
                -4.119968255444917e-17,
                -0.08998993039131165
            ],
            "max": [
                0.08998993039131165,
                0.004000000189989805,
                0.08998993039131165
            ]
        },
        {
            "bufferView": 2,
            "byteOffset": 0,
            "componentType": 5126,
            "count": 13256,
            "type": "VEC3",
            "min": [
                -1.0,
                -1.0,
                -1.0
            ],
            "max": [
                1.0,
                1.0,
                1.0
            ]
        },
        {
            "bufferView": 3,
            "byteOffset": 0,
            "componentType": 5125,
            "count": 3372,
            "type": "SCALAR",
            "min": [
                0
            ],
            "max": [
                1211
            ]
        },
        {
            "bufferView": 4,
            "byteOffset": 0,
            "componentType": 5126,
            "count": 1212,
            "type": "VEC3",
            "min": [
                -0.006337469909340143,
                -0.005080000031739473,
                -0.00634999992325902
            ],
            "max": [
                0.006337469909340143,
                0.005080000031739473,
                0.00634999992325902
            ]
        },
        {
            "bufferView": 5,
            "byteOffset": 0,
            "componentType": 5126,
            "count": 1212,
            "type": "VEC3",
            "min": [
                -1.0,
                -1.0,
                -1.0
            ],
            "max": [
                1.0,
                1.0,
                1.0
            ]
        }
    ],
    "materials": [
        {
            "name": "mattesteel",
            "pbrMetallicRoughness": {
                "baseColorFactor": [
                    0.38891028388129995,
                    0.3488648621678924,
                    0.31118052762160187,
                    1.0
                ],
                "metallicFactor": 1.0,
                "roughnessFactor": 0.5
            }
        }
    ],
    "bufferViews": [
        {
            "buffer": 0,
            "byteOffset": 0,
            "byteLength": 118512,
            "target": 34963
        },
        {
            "buffer": 0,
            "byteOffset": 118512,
            "byteLength": 159072,
            "byteStride": 12,
            "target": 34962
        },
        {
            "buffer": 0,
            "byteOffset": 277584,
            "byteLength": 159072,
            "byteStride": 12,
            "target": 34962
        },
        {
            "buffer": 1,
            "byteOffset": 0,
            "byteLength": 13488,
            "target": 34963
        },
        {
            "buffer": 1,
            "byteOffset": 13488,
            "byteLength": 14544,
            "byteStride": 12,
            "target": 34962
        },
        {
            "buffer": 1,
            "byteOffset": 28032,
            "byteLength": 14544,
            "byteStride": 12,
            "target": 34962
        }
    ],
    "buffers": [
        {
            "uri": "0-1-24-DYN-2100-06-R1 (Front Brake Rotor)-1.bin",
            "byteLength": 436656
        },
        {
            "uri": "0-2-24-PTN-3100-08-R1 (Universal Brake Button)-1.bin",
            "byteLength": 42576
        }
    ]
}
